# xmcd
#
# Track frame offsets:
#	150
#	14995
#	26760
#	43142
#	63400
#	78102
#	93582
#	108432
#	122400
#	138095
#	155832
#	170120
#
# Disc length: 2464 seconds
# Revision: 0
# Processed by: cddbd v1.5.2PL0 Copyright (c) Steve Scherf et al.
# Submitted via: dBpowerAMP V12.0
#
DISCID=a3099e0c
DTITLE=Rosanne Cash - Rosanne Cash ~ Retrospective 1979-1989 [dBP-LITE-FLAC@]
DYEAR=1989
DGENRE=Pop
TTITLE0=Seven Year Ache
TTITLE1=I Don't Want To Spoil The Party
TTITLE2=Hold On
TTITLE3=Blue Moon With Heartache
TTITLE4=My Baby Thinks He's A Train
TTITLE5=No Memories Hangin' Around
TTITLE6=I Don't Know Why You Don't Want Me
TTITLE7=I Wonder
TTITLE8=Never Be You
TTITLE9=The Way We Make A Broken Heart
TTITLE10=Tennessee Flat Top Box
TTITLE11=Black And White
EXTD=
EXTT0=
EXTT1=
EXTT2=
EXTT3=
EXTT4=
EXTT5=
EXTT6=
EXTT7=
EXTT8=
EXTT9=
EXTT10=
EXTT11=
PLAYORDER=
